/* XPM */
static char * Barrel_1_Down_xpm[] = {
"32 32 4 1",
" 	c #000000",
".	c #441000",
"+	c #7C1D00",
"@	c #581400",
"                                ",
"                                ",
"                                ",
"                                ",
"                                ",
"                                ",
"                                ",
"                                ",
"                                ",
"                                ",
"                                ",
"                                ",
"              ....              ",
"             .++++.             ",
"            .+@++@+.            ",
"            .++@@++.            ",
"            .++@@++.            ",
"            .+@++@+.            ",
"             .++++.             ",
"              .++.              ",
"              .++.              ",
"              .++.              ",
"              .++.              ",
"              .++.              ",
"              .++.              ",
"              .++.              ",
"              .++.              ",
"              ....              ",
"             ......             ",
"             ......             ",
"              ....              ",
"                                "};
