/* XPM */
static char * C:\Users\Afonso Viveiros\OneDrive\Ambiente de Trabalho\Jackbox\mira_xpm[] = {
"16 16 3 1",
" 	c #000000",
".	c #441000",
"+	c #7C1D00",
"       ..       ",
"      .++.      ",
"      .++.      ",
"      .++.      ",
"      .++.      ",
"      .++.      ",
" .....++++..... ",
".++++++  ++++++.",
".++++++  ++++++.",
" .....++++..... ",
"      .++.      ",
"      .++.      ",
"      .++.      ",
"      .++.      ",
"      .++.      ",
"       ++       "};
