/* XPM */
static char * C:\Users\Afonso Viveiros\OneDrive\Ambiente de Trabalho\Jackbox\Tank_2_Down_xpm[] = {
"32 32 4 1",
" 	c #000000",
".	c #0A0066",
"+	c #221882",
"@	c #0057D7",
" ....                      .... ",
".+@@+. .................. .+@@+.",
".@++@..@@@@+@@@@@@@@+@@@@..@++@.",
".@@@@.@@@@@++++++++++@@@@@.@@@@.",
".+@@+.@@@@@+@@@@@@@@+@@@@@.+@@+.",
".@++@.+@@@@++++++++++@@@@+.@++@.",
".@@@@.@+@@@+@@@@@@@@+@@@+@.@@@@.",
".+@@+.@@+@@++++++++++@@+@@.+@@+.",
".@++@.@@+@@+@@@@@@@@+@@+@@.@++@.",
".@@@@.@@+@@@++++++++@@@+@@.@@@@.",
".+@@+.@@+@@@@+@@@@+@@@@+@@.+@@+.",
".@++@.@@+@@@@+@@@@+@@@@+@@.@++@.",
".@@@@.@@+@@@@+@@@@+@@@@+@@.@@@@.",
".+@@+.@@+@@@@+@@@@+@@@@+@@.+@@+.",
".@++@.@@+@@@@+@@@@+@@@@+@@.@++@.",
".@@@@.@@+@@@@+@@@@+@@@@+@@.@@@@.",
".+@@+.@@+@@@@+@@@@+@@@@+@@.+@@+.",
".@++@.@@+@@@@+@@@@+@@@@+@@.@++@.",
".@@@@.@@+@@@@+@@@@+@@@@+@@.@@@@.",
".+@@+.@@+@@@@+@@@@+@@@@+@@.+@@+.",
".@++@.@@+@@@@+@@@@+@@@@+@@.@++@.",
".@@@@.@@+@@@@+@@@@+@@@@+@@.@@@@.",
".+@@+.@@+@@@@+@@@@+@@@@+@@.+@@+.",
".@++@.@@+@@@@+@@@@+@@@@+@@.@++@.",
".@@@@.@@+@@@@+@@@@+@@@@+@@.@@@@.",
".+@@+.@+@@@@+@++++@+@@@@+@.+@@+.",
".@++@.+@@@@@+@@@@@@+@@@@@+.@++@.",
".@@@@.@@@@@++@@@@@@++@@@@@.@@@@.",
".+@@+.@@@@+@@+@@@@+@@+@@@@.+@@+.",
".@++@..@@+@@@@+@@+@@@@+@@..@++@.",
".@@@@. .................. .@@@@.",
" ....                      .... "};
