/* XPM */
static char * C:\Users\Afonso Viveiros\OneDrive\Ambiente de Trabalho\Jackbox\Tank_1_Right_xpm[] = {
"32 32 4 1",
" 	c #000000",
".	c #441000",
"+	c #581400",
"@	c #7C1D00",
" .............................. ",
".+@@+@@+@@+@@+@@+@@+@@+@@+@@+@@.",
".@+@@+@@+@@+@@+@@+@@+@@+@@+@@+@.",
".@+@@+@@+@@+@@+@@+@@+@@+@@+@@+@.",
".+@@+@@+@@+@@+@@+@@+@@+@@+@@+@@.",
" .............................. ",
"  .@@+@@@@@@@@@@@@@@@@@@@@+@@.  ",
" .@@@@+@@@@@@@@@@@@@@@@@@+@@@@. ",
" .@@@@@++++++++++++++++++@@@@@. ",
" .@@@@@@@@@@@@@@@@@@@@@@@@@@@+. ",
" .@@@@@@@@@@@@@@@@@@@@@@@@@@+@. ",
" .+++++++@@@@@@@@@@@@@@@@@@+@@. ",
" .@+@+@+@+@@@@@@@@@@@@@@@+++@@. ",
" .@+@+@+@++++++++++++++++@@@+@. ",
" .@+@+@+@+@@@@@@@@@@@@@@@+@@@+. ",
" .@+@+@+@+@@@@@@@@@@@@@@@+@@@@. ",
" .@+@+@+@+@@@@@@@@@@@@@@@+@@@@. ",
" .@+@+@+@+@@@@@@@@@@@@@@@+@@@+. ",
" .@+@+@+@++++++++++++++++@@@+@. ",
" .@+@+@+@+@@@@@@@@@@@@@@@+++@@. ",
" .+++++++@@@@@@@@@@@@@@@@@@+@@. ",
" .@@@@@@@@@@@@@@@@@@@@@@@@@@+@. ",
" .@@@@@@@@@@@@@@@@@@@@@@@@@@@+. ",
" .@@@@@++++++++++++++++++@@@@@. ",
" .@@@@+@@@@@@@@@@@@@@@@@@+@@@@. ",
"  .@@+@@@@@@@@@@@@@@@@@@@@+@@.  ",
" .............................. ",
".+@@+@@+@@+@@+@@+@@+@@+@@+@@+@@.",
".@+@@+@@+@@+@@+@@+@@+@@+@@+@@+@.",
".@+@@+@@+@@+@@+@@+@@+@@+@@+@@+@.",
".+@@+@@+@@+@@+@@+@@+@@+@@+@@+@@.",
" .............................. "};
